<svg xmlns="http://www.w3.org/2000/svg" xmlns:xlink="http://www.w3.org/1999/xlink" id="ehtpj37" overflow="visible" version="1.1" viewBox="0 0 1451 135"><desc>Engraved by Verovio 5.4.0-d051892</desc><defs><path id="E050-ehtpj37" d="M441-245c-23-4-48-6-76-6-59 0-102 7-130 20-88 42-150 93-187 154C22-33 5 26 0 99c0 6-1 13-1 19 0 54 15 111 45 170 29 57 65 106 110 148s96 85 153 127c-3 16-8 46-13 92-4 43-5 73-5 89 0 117 16 172 69 257 34 54 64 82 89 82 21 0 43-30 69-92s39-115 41-159v-15c0-109-21-162-67-241-13-20-63-90-98-118-13-9-25-19-37-29l31-181c8 1 18 2 28 2 58 0 102-12 133-35 59-43 92-104 98-184 1-7 1-15 1-22 0-123-87-209-181-248 8-57 17-110 25-162 5-31 6-58 6-80 0-30-5-53-14-70-35-64-88-99-158-103-5 0-11-1-16-1-37 0-72 10-108 27-50 24-77 59-80 105v11c0 29 7 55 20 76 18 28 45 42 79 44h6c49 0 93-42 97-87v-9c0-51-34-86-105-106q25.5-36 102-36c62 0 116 43 140 85 9 16 13 41 13 74 0 20-1 42-5 67-8 53-18 106-26 159zm20 1184c-95 0-135-175-135-286 0-24 2-48 5-71 50 39 92 82 127 128 40 53 60 100 60 140v8c-4 53-22 81-55 81zm-55-820 54-326c73 25 110 78 110 161 0 7 0 15-1 23-7 95-57 142-151 142zm-24-2c-72-2-128-47-128-120v-7c2-46 43-99 75-115-3-2-7-5-10-10-70 33-116 88-123 172v11c0 68 44 126 88 159q34.5 25.5 78 36l-29 170c-21-13-52-37-92-73-50-44-86-84-109-119C87 152 65 91 65 39V26c5-68 35-127 93-176s125-73 203-73q37.5 0 75 9c-19 111-36 221-54 331z" transform="scale(1 -1)"/><path id="E262-ehtpj37" d="M136 186v169h17V191l44 14v-91l-44-14V-65l44 12v-91l-44-13v-155h-17v150l-76-22v-155H43v149L0-203v90l43 14V68L0 54v92l43 13v169h17V165zM60 73V-94l76 22V96z" transform="scale(1 -1)"/><path id="E0A2-ehtpj37" d="M198 133c102 0 207-45 207-133 0-92-118-133-227-133C77-133 0-87 0 0c0 88 93 133 198 133zm95-154c0 14-3 29-8 44q-10.5 30-33 54c-20 21-43 31-68 31l-20-2c-15-5-27-14-36-28-4-9-6-17-8-24s-3-16-3-27q0-22.5 9-57c9-34.5 18-41 34-55 15-15 36-23 62-23 4 0 10 1 18 2 19 5 32 15 40 30s13 34 13 55z" transform="scale(1 -1)"/></defs><style>#ehtpj37 path{stroke:currentColor}</style><svg class="definition-scale" color="#000" viewBox="0 0 14510 1350"><g style="font-family:Times,serif"><g id="p1vvp4bx" class="system"><g id="v13y7tnq" class="measure"><g id="e1crxywe" class="staff"><path stroke-width="13" d="M0 345h14512M0 525h14512M0 705h14512M0 885h14512M0 1065h14512"/><use xlink:href="#E050-ehtpj37" id="ywowrcq" class="clef" transform="matrix(.72 0 0 .72 90 885)"/><g id="z15stuef" class="keySig"><use xlink:href="#E262-ehtpj37" id="a1nr7knu" class="keyAccid" transform="matrix(.72 0 0 .72 735 345)"/><use xlink:href="#E262-ehtpj37" id="bkevf4j" class="keyAccid" transform="matrix(.72 0 0 .72 913 615)"/><use xlink:href="#E262-ehtpj37" id="c1x2t82b" class="keyAccid" transform="matrix(.72 0 0 .72 1091 255)"/><use xlink:href="#E262-ehtpj37" id="d1p5j4fx" class="keyAccid" transform="matrix(.72 0 0 .72 1269 525)"/></g><g id="f176tknh" class="layer"><g id="n1" class="note"><use xlink:href="#E0A2-ehtpj37" class="notehead" transform="matrix(.72 0 0 .72 1680 1065)"/></g><g id="n2" class="note"><use xlink:href="#E0A2-ehtpj37" class="notehead" transform="matrix(.72 0 0 .72 3270 975)"/></g><g id="n3" class="note"><use xlink:href="#E0A2-ehtpj37" class="notehead" transform="matrix(.72 0 0 .72 4860 885)"/></g><g id="n4" class="note"><use xlink:href="#E0A2-ehtpj37" class="notehead" transform="matrix(.72 0 0 .72 6450 795)"/></g><g id="n5" class="note"><use xlink:href="#E0A2-ehtpj37" class="notehead" transform="matrix(.72 0 0 .72 8040 705)"/></g><g id="n6" class="note"><use xlink:href="#E0A2-ehtpj37" class="notehead" transform="matrix(.72 0 0 .72 9630 615)"/></g><g id="n7" class="note"><use xlink:href="#E0A2-ehtpj37" class="notehead" transform="matrix(.72 0 0 .72 11220 525)"/></g><g id="n8" class="note"><use xlink:href="#E0A2-ehtpj37" class="notehead" transform="matrix(.72 0 0 .72 12810 435)"/></g></g></g><g id="d12y6g8y" class="barLine"><path stroke-width="27" d="M14400 345v720M14499 345v720"/></g></g></g></g></svg></svg>