<svg viewBox="0 0 600 300" version="1.1" xmlns="http://www.w3.org/2000/svg" xmlns:xlink="http://www.w3.org/1999/xlink" overflow="visible" id="u1oyagbw">
   
   <defs>
      <g id="E050-u1oyagbw">
         <path transform="scale(1,-1)" d="M441 -245c-23 -4 -48 -6 -76 -6c-59 0 -102 7 -130 20c-88 42 -150 93 -187 154c-26 44 -43 103 -48 176c0 6 -1 13 -1 19c0 54 15 111 45 170c29 57 65 106 110 148s96 85 153 127c-3 16 -8 46 -13 92c-4 43 -5 73 -5 89c0 117 16 172 69 257c34 54 64 82 89 82 c21 0 43 -30 69 -92s39 -115 41 -159v-15c0 -109 -21 -162 -67 -241c-13 -20 -63 -90 -98 -118c-13 -9 -25 -19 -37 -29l31 -181c8 1 18 2 28 2c58 0 102 -12 133 -35c59 -43 92 -104 98 -184c1 -7 1 -15 1 -22c0 -123 -87 -209 -181 -248c8 -57 17 -110 25 -162 c5 -31 6 -58 6 -80c0 -30 -5 -53 -14 -70c-35 -64 -88 -99 -158 -103c-5 0 -11 -1 -16 -1c-37 0 -72 10 -108 27c-50 24 -77 59 -80 105v11c0 29 7 55 20 76c18 28 45 42 79 44h6c49 0 93 -42 97 -87v-9c0 -51 -34 -86 -105 -106c17 -24 51 -36 102 -36c62 0 116 43 140 85 c9 16 13 41 13 74c0 20 -1 42 -5 67c-8 53 -18 106 -26 159zM461 939c-95 0 -135 -175 -135 -286c0 -24 2 -48 5 -71c50 39 92 82 127 128c40 53 60 100 60 140v8c-4 53 -22 81 -55 81h-2zM406 119l54 -326c73 25 110 78 110 161c0 7 0 15 -1 23c-7 95 -57 142 -151 142h-12 zM382 117c-72 -2 -128 -47 -128 -120v-7c2 -46 43 -99 75 -115c-3 -2 -7 -5 -10 -10c-70 33 -116 88 -123 172v11c0 68 44 126 88 159c23 17 49 29 78 36l-29 170c-21 -13 -52 -37 -92 -73c-50 -44 -86 -84 -109 -119c-45 -69 -67 -130 -67 -182v-13c5 -68 35 -127 93 -176 s125 -73 203 -73c25 0 50 3 75 9c-19 111 -36 221 -54 331z"></path>
      </g>
      <g id="E262-u1oyagbw">
         <path transform="scale(1,-1)" d="M136 186v169h17v-164l44 14v-91l-44 -14v-165l44 12v-91l-44 -13v-155h-17v150l-76 -22v-155h-17v149l-43 -13v90l43 14v167l-43 -14v92l43 13v169h17v-163zM60 73v-167l76 22v168z"></path>
      </g>
   </defs>
   <style type="text/css">#u1oyagbw g.page-margin {font-family:Times,serif;}#u1oyagbw g.ending, #u1oyagbw g.fing, #u1oyagbw g.reh, #u1oyagbw g.tempo {font-weight:bold;}#u1oyagbw g.dir, #u1oyagbw g.dynam, #u1oyagbw g.mNum {font-style:italic;}#u1oyagbw g.label {font-weight:normal;}#u1oyagbw path {stroke:currentColor}</style>
   <svg class="definition-scale" color="black" viewBox="0 0 3410 1350">
      <g class="page-margin" transform="translate(0, -150) scale(1.2,1.2)">
         <g id="v14ej6wt" class="mdiv pageMilestone"></g>
         <g id="web3kg6" class="score pageMilestone"></g>
         <g id="p1jtdc1o" class="system">
            <g id="kdbngyr" class="section systemMilestone"></g>
            <g id="lmyyoej" class="measure">
               <g id="u10uxo91" class="staff">
                  <path d="M0 345 L3411 345" stroke-width="13"></path>
                  <path d="M0 525 L3411 525" stroke-width="13"></path>
                  <path d="M0 705 L3411 705" stroke-width="13"></path>
                  <path d="M0 885 L3411 885" stroke-width="13"></path>
                  <path d="M0 1065 L3411 1065" stroke-width="13"></path>
                  <g id="v1inlo90" class="clef">
                     <use xlink:href="#E050-u1oyagbw" transform="translate(90, 885) scale(0.72, 0.72)"></use>
                  </g>
                  <g id="wgza9c2" class="keySig">
                     <g id="xgvo0fu" class="keyAccid">
                        <use xlink:href="#E262-u1oyagbw" transform="translate(735, 345) scale(0.72, 0.72)"></use>
                     </g>
                  </g>
                  <g id="v7z9r0b" class="layer"></g>
               </g>
               
            </g>
            <g id="d14pwx99" class="systemMilestoneEnd kdbngyr"></g>
         </g>
         <g id="ec4vi9j" class="pageMilestoneEnd web3kg6"></g>
         <g id="fbss4m3" class="pageMilestoneEnd v14ej6wt"></g>
      </g>
   </svg>
</svg>
